<svg viewBox="0 0 434 48" fill="none" xmlns="http://www.w3.org/2000/svg">
<path d="M14.1755 46.792C12.9808 46.792 12.0421 46.3867 11.3595 45.576C8.88481 40.5413 6.55948 34.12 4.38348 26.312C2.20748 18.4613 0.842142 11.1227 0.287476 4.29599L5.85548 1.67199L7.51948 2.69599C7.34881 4.61599 7.26348 6.77066 7.26348 9.15999C7.26348 19.1013 9.33281 30.1733 13.4715 42.376C14.1115 37.8107 15.2848 32.392 16.9915 26.12C18.7408 19.8053 20.6181 14.1733 22.6235 9.22399C22.4528 8.15732 22.2821 6.51466 22.1115 4.29599L27.6795 1.67199L29.3435 2.69599C29.1728 4.61599 29.0875 6.77066 29.0875 9.15999C29.0875 19.1013 31.1568 30.1733 35.2955 42.376C36.1061 36.616 37.6635 29.768 39.9675 21.832C42.3141 13.8533 44.6821 7.53866 47.0715 2.88799C47.9675 2.07732 49.0128 1.67199 50.2075 1.67199C50.3781 1.67199 50.4635 1.75732 50.4635 1.92799C50.4635 2.09866 49.8875 3.78399 48.7355 6.98399C47.6261 10.184 46.2822 15.1333 44.7035 21.832C43.1248 28.5307 41.9088 35.8267 41.0555 43.72L35.9995 46.792C34.8048 46.792 33.8661 46.3867 33.1835 45.576C29.3861 37.8107 26.3355 28.3387 24.0315 17.16C21.8555 25.3947 20.2555 34.248 19.2315 43.72L14.1755 46.792Z" fill="#B0368E" fill-opacity="0.86"/>
<path d="M77.069 21.512L75.149 25.928C72.6743 26.3973 70.3063 26.632 68.045 26.632C65.7836 26.632 63.821 26.568 62.157 26.44C62.1143 27.0373 62.093 27.8907 62.093 29C62.093 33.1813 62.6903 36.6373 63.885 39.368C65.1223 42.056 66.957 43.4 69.389 43.4C71.8637 43.4 73.8476 42.504 75.341 40.712C76.8343 38.8773 78.157 35.9333 79.309 31.88C79.3943 31.5387 79.5436 31.368 79.757 31.368C80.3543 31.368 81.0156 31.6667 81.741 32.264C79.7783 42.1627 75.3196 47.112 68.365 47.112C60.9836 47.112 57.165 40.0293 56.909 25.864L55.629 25.608C55.245 25.48 54.861 25.0533 54.477 24.328C54.1356 23.56 53.9436 22.9627 53.901 22.536L54.221 22.152C55.373 22.3227 56.2903 22.4293 56.973 22.472C57.1863 15.9013 57.5703 10.9947 58.125 7.75199L56.589 7.36799C56.205 7.11199 55.885 6.70666 55.629 6.15199C55.4156 5.55466 55.309 5.12799 55.309 4.87199C55.309 4.61599 55.3516 4.48799 55.437 4.48799L59.981 4.87199L64.653 1.67199L66.317 2.69599L65.549 4.93599C72.0343 4.85066 77.3463 3.76266 81.485 1.67199L82.573 3.33599L80.461 8.83999C77.4743 9.22399 74.637 9.41599 71.949 9.41599C69.261 9.41599 66.8076 9.26666 64.589 8.96799C63.565 13.32 62.8396 17.8853 62.413 22.664H63.885C68.493 22.664 72.6956 21.9173 76.493 20.424L77.069 21.512Z" fill="#B0368E" fill-opacity="0.86"/>
<path d="M96.5245 24.52C96.4391 28.0187 96.1831 31.304 95.7565 34.376C95.3725 37.448 94.9458 39.4533 94.4765 40.392C93.9645 41.032 93.4098 41.352 92.8125 41.352C92.2578 41.352 91.9805 41.288 91.9805 41.16C92.5778 37.192 92.8765 33.4587 92.8765 29.96C92.8765 17.5013 90.9992 9.39466 87.2445 5.63999L89.8685 1.35199C92.4285 3.52799 96.1832 5.06399 101.132 5.95999C103.01 6.30132 104.823 6.68532 106.572 7.11199C110.327 7.96532 112.204 9.65066 112.204 12.168C112.204 13.2773 111.628 14.4293 110.476 15.624C109.367 16.8187 108.066 17.864 106.572 18.76C103.884 20.3813 101.9 21.4267 100.62 21.896C105.911 22.28 109.922 23.6453 112.652 25.992C115.383 28.3387 116.748 31.1547 116.748 34.44C116.748 37.7253 115.17 40.6053 112.012 43.08C108.898 45.5547 104.396 46.792 98.5085 46.792C94.6258 46.792 91.0205 46.4293 87.6925 45.704C87.0525 45.064 86.7325 44.4453 86.7325 43.848C86.7325 43.2507 86.7965 42.952 86.9245 42.952C87.0525 42.952 87.4365 43.0373 88.0765 43.208C90.1672 43.6773 92.3218 43.912 94.5405 43.912C98.9778 43.912 102.583 42.9947 105.356 41.16C108.172 39.2827 109.58 36.7653 109.58 33.608C109.58 31.7733 108.834 30.152 107.34 28.744C104.652 26.2267 101.047 24.8187 96.5245 24.52ZM95.5645 8.77599C96.2471 10.5253 96.5885 14.216 96.5885 19.848C98.9351 18.9093 100.919 17.7573 102.54 16.392C104.162 14.984 104.972 13.896 104.972 13.128C104.972 12.36 104.396 11.7413 103.244 11.272C102.135 10.76 100.727 10.312 99.0205 9.92799C97.3138 9.50132 96.1618 9.11732 95.5645 8.77599Z" fill="#B0368E" fill-opacity="0.86"/>
<path d="M146.896 12.232C147.024 14.152 147.088 17.1387 147.088 21.192C147.088 25.2453 146.854 29.192 146.384 33.032C145.958 36.8293 145.488 39.2827 144.976 40.392C144.422 41.032 143.867 41.352 143.312 41.352C142.758 41.352 142.48 41.288 142.48 41.16C143.078 36.3813 143.376 32.648 143.376 29.96C143.376 17.544 141.478 9.43732 137.68 5.63999L140.368 1.35199C143.867 4.76532 148.176 8.09332 153.296 11.336C157.99 14.28 161.766 17.1173 164.624 19.848C166.075 21.2133 167.248 22.8133 168.144 24.648C169.04 26.4827 169.488 28.5093 169.488 30.728C169.488 32.904 168.998 34.952 168.016 36.872C167.035 38.792 165.798 40.3493 164.304 41.544C162.854 42.7387 161.211 43.7413 159.376 44.552C153.574 47.0693 146.619 47.4533 138.512 45.704C137.872 44.9787 137.552 44.3387 137.552 43.784C137.552 43.2293 137.616 42.952 137.744 42.952C137.872 42.952 138.256 43.0373 138.896 43.208C140.987 43.6773 143.163 43.912 145.424 43.912C150.416 43.912 154.512 42.5893 157.712 39.944C160.912 37.256 162.512 34.0987 162.512 30.472C162.512 23.7733 157.307 17.6933 146.896 12.232Z" fill="#B0368E" fill-opacity="0.86"/>
<path d="M196.881 21.512L194.961 25.928C192.487 26.3973 190.119 26.632 187.857 26.632C185.596 26.632 183.633 26.568 181.969 26.44C181.927 27.0373 181.905 27.8907 181.905 29C181.905 33.1813 182.503 36.6373 183.697 39.368C184.935 42.056 186.769 43.4 189.201 43.4C191.676 43.4 193.66 42.504 195.153 40.712C196.647 38.8773 197.969 35.9333 199.121 31.88C199.207 31.5387 199.356 31.368 199.569 31.368C200.167 31.368 200.828 31.6667 201.553 32.264C199.591 42.1627 195.132 47.112 188.177 47.112C180.796 47.112 176.977 40.0293 176.721 25.864L175.441 25.608C175.057 25.48 174.673 25.0533 174.289 24.328C173.948 23.56 173.756 22.9627 173.713 22.536L174.033 22.152C175.185 22.3227 176.103 22.4293 176.785 22.472C176.999 15.9013 177.383 10.9947 177.937 7.75199L176.401 7.36799C176.017 7.11199 175.697 6.70666 175.441 6.15199C175.228 5.55466 175.121 5.12799 175.121 4.87199C175.121 4.61599 175.164 4.48799 175.249 4.48799L179.793 4.87199L184.465 1.67199L186.129 2.69599L185.361 4.93599C191.847 4.85066 197.159 3.76266 201.297 1.67199L202.385 3.33599L200.273 8.83999C197.287 9.22399 194.449 9.41599 191.761 9.41599C189.073 9.41599 186.62 9.26666 184.401 8.96799C183.377 13.32 182.652 17.8853 182.225 22.664H183.697C188.305 22.664 192.508 21.9173 196.305 20.424L196.881 21.512Z" fill="#B0368E" fill-opacity="0.86"/>
<path d="M220.113 46.792C218.918 46.792 217.98 46.3867 217.297 45.576C214.822 40.5413 212.497 34.12 210.321 26.312C208.145 18.4613 206.78 11.1227 206.225 4.29599L211.793 1.67199L213.457 2.69599C213.286 4.61599 213.201 6.77066 213.201 9.15999C213.201 19.144 215.27 30.2373 219.409 42.44C220.348 36.68 222.14 29.8107 224.785 21.832C227.43 13.8533 230.097 7.53866 232.785 2.88799C233.681 2.07732 234.726 1.67199 235.921 1.67199C236.092 1.67199 236.177 1.77866 236.177 1.99199C236.177 2.20532 235.921 2.95199 235.409 4.23199C234.897 5.51199 234.214 7.32532 233.361 9.67199C232.508 12.0187 231.59 14.7067 230.609 17.736C228.348 24.9467 226.534 33.608 225.169 43.72L220.113 46.792Z" fill="#B0368E" fill-opacity="0.86"/>
<path d="M262.131 21.512L260.211 25.928C257.737 26.3973 255.369 26.632 253.107 26.632C250.846 26.632 248.883 26.568 247.219 26.44C247.177 27.0373 247.155 27.8907 247.155 29C247.155 33.1813 247.753 36.6373 248.947 39.368C250.185 42.056 252.019 43.4 254.451 43.4C256.926 43.4 258.91 42.504 260.403 40.712C261.897 38.8773 263.219 35.9333 264.371 31.88C264.457 31.5387 264.606 31.368 264.819 31.368C265.417 31.368 266.078 31.6667 266.803 32.264C264.841 42.1627 260.382 47.112 253.427 47.112C246.046 47.112 242.227 40.0293 241.971 25.864L240.691 25.608C240.307 25.48 239.923 25.0533 239.539 24.328C239.198 23.56 239.006 22.9627 238.963 22.536L239.283 22.152C240.435 22.3227 241.353 22.4293 242.035 22.472C242.249 15.9013 242.633 10.9947 243.187 7.75199L241.651 7.36799C241.267 7.11199 240.947 6.70666 240.691 6.15199C240.478 5.55466 240.371 5.12799 240.371 4.87199C240.371 4.61599 240.414 4.48799 240.499 4.48799L245.043 4.87199L249.715 1.67199L251.379 2.69599L250.611 4.93599C257.097 4.85066 262.409 3.76266 266.547 1.67199L267.635 3.33599L265.523 8.83999C262.537 9.22399 259.699 9.41599 257.011 9.41599C254.323 9.41599 251.87 9.26666 249.651 8.96799C248.627 13.32 247.902 17.8853 247.475 22.664H248.947C253.555 22.664 257.758 21.9173 261.555 20.424L262.131 21.512Z" fill="#B0368E" fill-opacity="0.86"/>
<path d="M278.515 45.32L278.451 45.768C278.195 46.024 277.726 46.2587 277.043 46.472C276.403 46.6853 275.891 46.792 275.507 46.792C275.166 46.792 274.995 46.7067 274.995 46.536C276.019 40.392 276.531 33.2453 276.531 25.096C276.531 16.904 276.062 9.47999 275.123 2.82399L276.787 1.67199L282.483 4.61599C281.758 20.36 280.648 32.8187 279.155 41.992C279.752 41.992 280.328 41.992 280.883 41.992C287.283 41.992 292.574 40.904 296.755 38.728L297.843 40.392L295.731 45.896C293.47 46.1093 290.888 46.216 287.987 46.216C285.086 46.216 281.928 45.9173 278.515 45.32Z" fill="#B0368E" fill-opacity="0.86"/>
<path d="M325.547 1.73599L326.635 3.33599L324.779 7.04799C326.912 8.88266 328.662 11.5067 330.027 14.92C331.435 18.3333 332.139 21.6613 332.139 24.904C332.139 28.1467 331.798 31.0053 331.115 33.48C330.475 35.912 329.494 38.1947 328.171 40.328C326.848 42.4187 324.992 44.0827 322.603 45.32C320.256 46.5573 317.526 47.176 314.411 47.176C309.974 47.176 306.262 45.4907 303.275 42.12C300.288 38.7493 298.795 34.0987 298.795 28.168C298.795 22.1947 300.672 16.7547 304.427 11.848C306.39 9.24532 309.184 7.04799 312.811 5.25599C316.438 3.42132 320.683 2.24799 325.547 1.73599ZM316.011 41.864C319.894 41.736 322.859 40.2853 324.907 37.512C326.998 34.7387 328.043 31.496 328.043 27.784C328.043 24.0293 327.424 20.296 326.187 16.584C324.95 12.872 323.222 9.90666 321.003 7.68799C315.584 8.45599 311.552 10.4827 308.907 13.768C306.262 17.0107 304.939 21.1067 304.939 26.056C304.939 30.9627 306.006 34.824 308.139 37.64C310.315 40.456 312.939 41.864 316.011 41.864Z" fill="#B0368E" fill-opacity="0.86"/>
<path d="M338.67 31.56C337.945 30.8773 337.582 30.024 337.582 29C337.582 28.6587 337.646 28.488 337.774 28.488C338.67 28.6587 339.993 28.744 341.742 28.744H342.958C342.788 16.84 341.081 8.98932 337.838 5.19199L340.846 0.903992C344.046 3.07999 348.612 5.46932 354.542 8.07199C356.377 8.88266 358.169 9.79999 359.918 10.824C363.374 12.8293 365.102 15.432 365.102 18.632C365.102 21.832 363.673 24.648 360.814 27.08C357.998 29.512 353.326 30.984 346.798 31.496C346.542 34.3973 345.988 39.304 345.134 46.216C344.494 46.856 343.812 47.176 343.086 47.176C342.404 47.176 342.062 47.112 342.062 46.984C342.617 41.1387 342.916 36.0187 342.958 31.624H342.638C340.846 31.624 339.524 31.6027 338.67 31.56ZM346.158 8.07199C346.884 12.1253 347.246 16.008 347.246 19.72C347.246 23.432 347.161 26.3333 346.99 28.424C350.83 27.8267 353.732 26.696 355.694 25.032C357.657 23.3253 358.638 21.384 358.638 19.208C358.638 17.2453 358.041 15.6667 356.846 14.472C356.206 13.7893 355.609 13.2133 355.054 12.744C354.542 12.2747 353.668 11.72 352.43 11.08C350.51 10.0987 348.42 9.09599 346.158 8.07199Z" fill="#B0368E" fill-opacity="0.86"/>
<path d="M391.756 21.512L389.836 25.928C387.362 26.3973 384.994 26.632 382.732 26.632C380.471 26.632 378.508 26.568 376.844 26.44C376.802 27.0373 376.78 27.8907 376.78 29C376.78 33.1813 377.378 36.6373 378.572 39.368C379.81 42.056 381.644 43.4 384.076 43.4C386.551 43.4 388.535 42.504 390.028 40.712C391.522 38.8773 392.844 35.9333 393.996 31.88C394.082 31.5387 394.231 31.368 394.444 31.368C395.042 31.368 395.703 31.6667 396.428 32.264C394.466 42.1627 390.007 47.112 383.052 47.112C375.671 47.112 371.852 40.0293 371.596 25.864L370.316 25.608C369.932 25.48 369.548 25.0533 369.164 24.328C368.823 23.56 368.631 22.9627 368.588 22.536L368.908 22.152C370.06 22.3227 370.978 22.4293 371.66 22.472C371.874 15.9013 372.258 10.9947 372.812 7.75199L371.276 7.36799C370.892 7.11199 370.572 6.70666 370.316 6.15199C370.103 5.55466 369.996 5.12799 369.996 4.87199C369.996 4.61599 370.039 4.48799 370.124 4.48799L374.668 4.87199L379.34 1.67199L381.004 2.69599L380.236 4.93599C386.722 4.85066 392.034 3.76266 396.172 1.67199L397.26 3.33599L395.148 8.83999C392.162 9.22399 389.324 9.41599 386.636 9.41599C383.948 9.41599 381.495 9.26666 379.276 8.96799C378.252 13.32 377.527 17.8853 377.1 22.664H378.572C383.18 22.664 387.383 21.9173 391.18 20.424L391.756 21.512Z" fill="#B0368E" fill-opacity="0.86"/>
<path d="M404.108 29.96C403.383 29.2773 403.02 28.424 403.02 27.4C403.02 27.0587 403.084 26.888 403.212 26.888C404.108 27.0587 405.431 27.144 407.18 27.144H408.332C408.076 16.1787 406.391 8.86132 403.276 5.19199L406.284 0.903992C409.612 3.03732 414.177 5.29866 419.98 7.68799C421.857 8.45599 423.649 9.30932 425.356 10.248C428.812 12.168 430.54 14.6853 430.54 17.8C430.54 19.6773 429.921 21.4907 428.684 23.24C427.489 24.9893 425.548 26.44 422.86 27.592C426.529 35.6987 430.007 41.9067 433.292 46.216V46.28C433.292 46.7493 432.588 46.984 431.18 46.984C430.839 46.984 430.583 46.9627 430.412 46.92C427.468 44.0187 423.372 38.0667 418.124 29.064C416.545 29.4053 414.625 29.6827 412.364 29.896C412.193 32.6267 411.596 38.0667 410.572 46.216C409.932 46.856 409.249 47.176 408.524 47.176C407.841 47.176 407.5 47.112 407.5 46.984C408.097 41.3093 408.396 35.6987 408.396 30.152V30.024H408.076C406.284 30.024 404.961 30.0027 404.108 29.96ZM411.596 8.07199C412.321 12.1253 412.684 15.7947 412.684 19.08C412.684 22.3653 412.62 24.9467 412.492 26.824C416.289 26.312 419.169 25.288 421.132 23.752C423.095 22.1733 424.076 20.3813 424.076 18.376C424.076 16.584 423.479 15.112 422.284 13.96C421.644 13.32 421.047 12.7867 420.492 12.36C419.98 11.9333 419.105 11.4213 417.868 10.824C416.631 10.2267 415.671 9.79999 414.988 9.54399C414.348 9.24532 413.217 8.75466 411.596 8.07199Z" fill="#B0368E" fill-opacity="0.86"/>
</svg>
